<?xml version="1.0" standalone="no"?>
<!DOCTYPE svg PUBLIC "-//W3C//DTD SVG 20010904//EN"
 "http://www.w3.org/TR/2001/REC-SVG-20010904/DTD/svg10.dtd">
<svg version="1.0" xmlns="http://www.w3.org/2000/svg"
 width="400.000000pt" height="400.000000pt" viewBox="0 0 400.000000 400.000000"
 preserveAspectRatio="xMidYMid meet">
<metadata>
Created by potrace 1.14, written by Peter Selinger 2001-2017
</metadata>
<g transform="translate(0.000000,400.000000) scale(0.100000,-0.100000)"
fill="#000000" stroke="none">
<path d="M1555 3870 c-132 -36 -224 -66 -244 -82 -13 -10 -20 -18 -15 -18 5
-1 -4 -8 -21 -17 -16 -9 -65 -42 -107 -74 -42 -32 -87 -63 -100 -70 -13 -7
-25 -15 -28 -19 -3 -4 -23 -19 -44 -34 -39 -26 -61 -58 -76 -108 -6 -18 -5
-28 1 -28 6 0 7 -9 4 -21 -5 -14 -3 -19 3 -15 6 3 13 2 17 -4 7 -11 -5 -14
-47 -11 -32 1 -44 -14 -27 -35 22 -27 7 -116 -21 -126 -6 -2 -12 -29 -13 -61
-1 -31 -5 -57 -8 -57 -3 0 -21 -19 -39 -42 l-33 -41 26 -23 c23 -19 24 -24 12
-40 -18 -24 -18 -27 3 -50 23 -25 42 -70 42 -97 0 -13 5 -28 12 -35 7 -7 15
-41 19 -78 5 -46 13 -72 28 -88 11 -12 21 -26 21 -32 0 -15 51 -176 70 -219
17 -39 17 -41 -4 -73 -11 -18 -31 -39 -43 -48 -13 -8 -23 -21 -23 -27 0 -7 -9
-18 -20 -25 -23 -14 -27 -47 -7 -59 7 -4 23 -23 36 -40 12 -18 29 -33 36 -33
8 0 19 -8 25 -17 9 -15 10 -12 5 12 -14 61 -15 70 -10 86 6 17 37 32 86 43 23
5 29 1 39 -24 7 -17 10 -33 7 -37 -9 -9 54 -84 67 -80 6 2 17 -2 24 -10 7 -7
23 -13 35 -13 22 -1 22 -1 -3 -21 -23 -19 -23 -21 -4 -18 12 2 28 -2 37 -9 12
-11 33 -10 116 1 l101 14 15 -23 c19 -30 20 -29 -11 -70 -29 -37 -82 -57 -186
-69 -71 -8 -92 -28 -47 -44 18 -6 40 -11 50 -11 10 0 21 -5 24 -11 10 -15 -23
-79 -40 -79 -8 0 -15 -7 -15 -15 0 -8 -7 -15 -15 -15 -8 0 -16 -4 -16 -10 -1
-5 -2 -16 -3 -22 -1 -7 2 -19 7 -25 5 -7 7 -20 3 -28 -3 -9 0 -15 10 -15 26 0
73 -42 79 -72 4 -15 11 -28 16 -28 5 0 9 -14 9 -30 0 -17 3 -29 8 -29 18 3 32
-2 32 -11 0 -5 -8 -7 -17 -4 -12 4 -8 -2 9 -17 33 -30 49 -75 23 -66 -9 4 -21
7 -26 7 -6 0 -9 8 -7 18 2 9 -3 16 -9 14 -7 -1 -13 5 -13 13 0 8 -5 15 -11 15
-16 0 -39 26 -39 45 0 8 -8 19 -17 22 -23 9 -52 38 -88 85 -15 21 -31 36 -35
33 -5 -3 -11 1 -13 7 -16 38 -4 -38 14 -93 50 -151 164 -319 313 -460 l39 -37
-14 -38 c-12 -32 -23 -41 -61 -55 -26 -9 -73 -37 -105 -62 -64 -50 -162 -102
-268 -142 -38 -15 -99 -38 -135 -52 -36 -13 -89 -33 -119 -43 -29 -11 -69 -30
-90 -42 -20 -13 -68 -37 -107 -54 -73 -31 -152 -80 -304 -188 -112 -79 -140
-105 -139 -130 0 -12 -6 -39 -15 -61 -8 -22 -15 -48 -16 -57 0 -17 98 -18
1920 -18 l1920 0 0 263 -1 262 -32 16 c-46 22 -232 121 -300 159 -33 18 -76
36 -97 41 -58 13 -140 69 -169 115 -32 51 -179 180 -229 201 -25 10 -51 13
-89 8 -37 -4 -59 -3 -69 6 -17 14 -16 14 -38 -26 l-16 -30 6 30 c4 17 11 36
17 42 6 9 6 13 0 13 -6 0 -23 -19 -38 -43 -72 -108 -186 -233 -250 -273 -16
-11 -41 -30 -55 -45 -14 -14 -51 -38 -83 -54 -31 -15 -55 -30 -52 -33 12 -12
-180 -105 -218 -105 -16 0 -23 -4 -16 -8 8 -5 6 -10 -7 -17 -21 -10 -44 -6
-44 10 0 6 8 7 17 4 10 -4 14 -4 11 0 -9 9 36 44 56 44 18 0 22 25 6 35 -14 9
-12 25 3 25 16 0 21 56 6 66 -8 4 -7 9 2 16 10 7 4 8 -16 3 l-30 -6 28 19 c15
10 24 22 21 25 -4 4 -13 2 -21 -5 -7 -6 -17 -8 -21 -4 -4 4 3 16 16 26 22 18
32 47 11 35 -6 -4 -5 2 3 14 7 12 21 21 30 21 10 0 18 6 18 14 0 9 7 12 20 9
15 -4 20 0 20 14 0 11 9 29 20 41 11 12 20 25 20 30 0 13 20 49 56 102 17 25
34 52 37 60 4 8 16 29 27 45 11 17 26 42 35 58 9 15 20 27 25 27 6 0 10 7 10
15 0 8 5 15 10 15 13 0 32 44 60 140 12 41 30 102 40 135 23 74 29 106 34 171
3 48 2 51 -17 46 -14 -4 -18 -2 -12 8 4 7 2 16 -6 21 -11 7 -15 -1 -19 -34 -4
-32 -9 -42 -22 -41 -20 2 -24 -16 -7 -33 9 -9 8 -19 -6 -39 -15 -24 -16 -26
-1 -21 11 5 16 1 16 -13 0 -18 -32 -36 -57 -32 -15 3 -17 -14 -3 -23 15 -9 12
-49 -6 -71 -14 -18 -15 -17 -12 19 2 20 3 37 2 37 -2 0 -11 -8 -20 -17 -17
-17 -18 -17 -11 0 4 11 1 28 -8 40 -13 18 -15 19 -15 4 0 -25 -13 -21 -33 11
l-18 27 5 -45 c6 -54 -4 -79 -24 -56 -8 11 -10 28 -5 53 5 31 4 36 -7 25 -7
-7 -12 -30 -12 -52 1 -37 0 -39 -21 -34 -16 4 -26 0 -34 -13 -7 -13 -10 -14
-11 -4 0 11 -4 9 -15 -5 -11 -14 -17 -16 -23 -7 -11 17 -45 -23 -48 -55 -3
-30 -9 -36 -24 -27 -14 9 -10 81 6 115 7 14 11 46 10 73 -1 26 2 47 7 47 5 0
-3 16 -18 36 -15 20 -23 39 -18 43 15 10 13 51 -2 51 -8 0 -18 6 -22 14 -10
16 -54 41 -67 38 -5 -2 -6 8 -4 22 5 24 -13 42 -37 37 -7 -2 -7 0 0 6 6 5 31
14 58 21 131 33 158 65 165 195 4 82 7 96 23 100 13 4 19 14 19 34 0 19 10 39
29 57 19 18 27 34 24 47 -5 17 -14 19 -132 15 -69 -2 -110 -2 -91 1 19 2 39
11 43 19 4 8 17 14 28 14 11 0 27 6 34 14 12 12 12 15 -1 20 -8 3 -13 10 -10
15 12 19 -211 25 -257 6 -9 -4 -28 -4 -41 -1 -13 3 -39 0 -57 -8 -19 -7 -60
-17 -91 -20 -32 -4 -60 -12 -63 -17 -4 -5 -16 -9 -29 -9 -26 0 -99 -45 -138
-85 -22 -22 -31 -25 -42 -16 -9 8 -16 8 -20 2 -4 -6 -17 -4 -34 5 -15 7 -37
14 -49 14 -12 0 -25 5 -28 10 -4 6 -11 8 -16 4 -5 -3 -15 -1 -22 4 -22 18
-101 23 -177 11 -41 -6 -93 -12 -115 -13 -56 -2 -82 -23 -87 -71 -6 -61 -26
-54 -33 12 -3 32 -11 92 -17 133 -5 41 -7 120 -3 180 9 148 13 170 36 170 11
0 19 5 19 10 0 6 6 10 13 10 7 0 38 23 69 50 31 28 66 50 77 50 12 0 21 5 21
11 0 5 8 9 18 7 9 -1 23 1 29 5 7 4 21 3 31 -2 11 -6 23 -7 27 -3 4 4 2 -4 -5
-17 -10 -19 -9 -22 1 -16 6 5 23 9 37 11 18 2 22 0 13 -9 -15 -15 -14 -27 2
-27 9 0 14 -17 15 -55 0 -30 5 -62 10 -71 5 -9 7 7 5 43 -5 78 11 108 57 108
19 0 40 7 47 15 10 12 12 8 13 -24 0 -31 3 -36 13 -27 8 6 17 8 20 4 4 -3 7 1
7 10 0 22 49 35 61 16 7 -11 9 -11 9 3 0 10 7 16 18 16 65 -3 149 33 178 77
20 30 94 69 94 49 0 -23 14 -16 39 21 13 19 29 35 36 35 7 0 18 7 25 15 6 8
15 14 18 13 4 0 9 1 12 2 34 13 160 -19 160 -42 0 -4 7 -8 15 -8 8 0 19 -9 25
-20 6 -12 21 -20 35 -20 17 0 25 -6 26 -17 0 -15 2 -15 9 2 5 11 9 14 9 6 1
-7 12 -22 26 -33 14 -11 25 -24 25 -30 0 -6 10 -19 22 -29 14 -13 17 -19 7
-20 -8 0 -6 -4 6 -9 17 -7 16 -9 -10 -10 l-30 -1 25 -14 c14 -8 19 -14 12 -15
-15 0 -16 2 70 -94 35 -38 73 -83 85 -100 29 -43 32 -96 8 -132 -18 -28 -16
-27 27 8 25 21 58 42 72 48 26 10 26 10 12 -19 -8 -15 -32 -41 -52 -56 -21
-16 -32 -31 -26 -33 7 -2 12 -11 12 -20 0 -9 6 -28 13 -42 7 -14 14 -38 15
-53 2 -29 25 -60 39 -55 4 2 9 -7 11 -19 6 -45 25 -24 20 22 -3 27 -1 51 7 62
7 10 15 44 19 76 4 31 12 55 17 52 5 -4 9 3 9 14 0 30 16 26 31 -8 25 -57 80
-42 71 18 -3 25 -8 30 -22 26 -10 -3 -21 -1 -25 5 -4 6 -15 8 -26 5 -13 -4
-19 -2 -19 9 0 15 9 19 35 18 6 -1 27 20 47 47 l36 47 -14 95 c-8 52 -16 195
-19 319 -3 153 -9 242 -18 276 -30 106 -82 177 -217 293 -61 53 -95 75 -132
84 -15 4 -88 34 -162 67 -76 34 -150 60 -168 60 -18 0 -49 5 -68 10 -19 6
-109 12 -200 15 -91 2 -185 9 -210 14 -53 12 -133 12 -175 1z m802 -1657 c11
-60 7 -187 -8 -219 -32 -65 -151 -105 -319 -105 -114 -1 -148 12 -184 69 -18
29 -21 40 -12 51 8 11 8 13 -1 7 -7 -4 -13 -3 -13 3 0 16 22 25 75 28 211 13
386 38 345 50 -42 12 -45 16 -20 23 16 5 19 8 8 9 -11 1 -15 6 -12 16 4 8 10
13 14 10 4 -3 11 2 14 11 4 10 2 13 -7 9 -6 -4 -3 1 7 9 11 9 29 16 40 16 12
0 30 7 40 15 11 8 14 15 7 15 -7 0 -9 5 -6 10 12 20 24 9 32 -27z m-1337 -6
c0 -10 -51 -29 -58 -22 -3 3 5 16 18 30 22 24 39 20 40 -8z m673 -87 c14 -11
33 -43 42 -70 12 -36 29 -61 61 -87 24 -21 44 -43 44 -50 0 -7 23 -27 50 -44
72 -44 67 -65 -20 -94 -30 -10 -66 -19 -80 -20 -14 -1 -33 -3 -44 -3 -12 -1
-16 -7 -12 -17 3 -9 0 -15 -9 -15 -8 0 -15 3 -15 8 0 4 -41 8 -91 9 -53 1 -96
6 -104 13 -23 19 -18 58 10 86 13 13 22 31 19 38 -3 8 0 25 7 38 8 13 15 32
16 43 5 47 29 142 41 163 16 28 51 29 85 2z m127 -145 c7 -9 8 -15 2 -15 -5 0
-12 7 -16 15 -3 8 -4 15 -2 15 2 0 9 -7 16 -15z m923 -315 c4 -25 0 -45 -14
-70 -11 -19 -17 -26 -13 -15 4 11 8 46 8 78 0 61 10 65 19 7z m-63 -125 c0
-14 -2 -25 -4 -25 -2 0 -6 11 -8 25 -3 14 -1 25 3 25 5 0 9 -11 9 -25z m-650
-30 c7 -18 6 -32 -3 -45 -15 -25 -23 -25 -36 -2 -9 16 -11 16 -24 -2 -10 -14
-22 -17 -45 -14 -22 3 -32 0 -32 -8 0 -15 -71 -37 -93 -28 -8 3 -18 1 -22 -5
-8 -14 -72 -14 -80 -1 -4 6 -13 5 -24 -2 -28 -17 -71 13 -71 49 0 21 3 24 12
15 9 -9 14 -8 23 5 9 12 16 13 32 4 17 -8 22 -8 27 4 6 16 76 22 76 6 0 -5 17
0 37 10 46 24 59 24 72 2 6 -11 11 -13 11 -5 0 21 47 37 64 22 13 -10 18 -9
31 4 23 22 34 20 45 -9z m540 15 c0 -5 -4 -10 -10 -10 -5 0 -10 5 -10 10 0 6
5 10 10 10 6 0 10 -4 10 -10z m-388 -20 c0 -11 1 -26 2 -32 1 -7 5 -16 11 -20
5 -4 2 -10 -8 -14 -19 -7 -24 -28 -4 -21 6 2 18 -10 25 -26 16 -39 15 -45 -8
-52 -16 -5 -18 -10 -10 -26 12 -21 7 -24 -20 -9 -13 7 -21 7 -25 0 -3 -5 -2
-10 3 -10 22 0 53 -40 49 -62 -4 -23 -4 -23 -12 -1 -4 11 -14 24 -23 27 -10 3
-23 9 -29 12 -8 3 -13 -1 -13 -9 0 -9 6 -18 13 -20 7 -4 6 -6 -4 -6 -9 -1 -19
-8 -23 -16 -4 -11 2 -15 24 -15 30 0 42 -22 20 -35 -5 -3 -10 -18 -10 -32 0
-15 -3 -23 -6 -20 -4 4 -15 -3 -25 -14 -19 -22 -34 -13 -18 11 5 8 9 18 9 23
0 13 -27 7 -41 -10 -10 -11 -10 -14 -1 -9 7 4 12 2 12 -4 0 -7 -7 -9 -16 -6
-9 3 -24 6 -35 6 -10 0 -19 7 -19 15 0 8 6 15 13 15 9 0 8 3 -2 9 -10 7 -11
13 -2 30 7 13 8 21 2 21 -6 0 -8 6 -5 13 7 19 -28 54 -50 49 -10 -2 -23 2 -27
10 -6 8 -12 9 -16 3 -5 -6 -15 -10 -23 -10 -8 1 -23 -5 -32 -13 -15 -13 -18
-13 -19 -1 0 8 -4 6 -9 -6 -7 -15 -9 -16 -9 -4 -1 18 -51 24 -51 6 0 -7 -4 -7
-12 1 -15 15 -48 16 -48 1 0 -5 -4 -8 -8 -5 -5 3 -32 2 -59 -3 -41 -6 -52 -5
-61 8 -9 14 -11 13 -11 -6 -1 -12 4 -25 9 -28 6 -3 10 -19 10 -35 0 -23 4 -28
16 -23 13 5 15 2 10 -15 -6 -17 -4 -21 8 -16 11 4 16 1 16 -10 0 -9 -7 -19
-15 -22 -8 -4 -15 -10 -15 -16 0 -5 -7 -17 -16 -26 -15 -15 -16 -14 -10 5 4
14 2 23 -9 27 -8 3 -15 12 -15 20 0 8 -6 17 -12 19 -7 3 -2 6 12 6 l25 2 -27
17 c-29 17 -36 32 -16 32 9 0 9 3 0 12 -17 17 -15 48 3 48 8 0 15 5 15 10 0 6
-6 10 -13 10 -8 0 -21 8 -30 18 -13 14 -13 20 -2 35 10 14 11 26 3 48 -16 45
-2 47 34 4 59 -70 66 -75 107 -75 22 0 43 5 46 10 3 6 0 10 -8 10 -8 0 -25 9
-38 20 -23 18 -23 19 -4 20 11 0 30 6 41 14 13 9 40 14 71 13 28 -2 49 1 47 5
-3 4 15 6 40 4 25 -2 48 0 52 3 3 3 9 6 12 7 75 8 156 44 212 93 42 36 50 38
52 11z m413 -22 c-7 -38 -10 -42 -24 -33 -8 4 -6 16 6 36 22 37 25 36 18 -3z
m-69 -46 c-9 -8 -26 10 -26 26 1 15 2 15 15 -2 8 -11 13 -21 11 -24z m-710
-329 c-10 -10 -19 5 -10 18 6 11 8 11 12 0 2 -7 1 -15 -2 -18z m105 8 c0 10 2
11 6 2 2 -7 11 -13 19 -13 8 0 14 -4 14 -10 0 -5 -7 -7 -15 -4 -8 4 -15 1 -15
-5 0 -6 5 -11 10 -11 6 0 10 -4 10 -10 0 -5 -10 -8 -22 -6 -13 3 -23 5 -23 6
0 1 -10 3 -23 4 -14 2 -21 -2 -18 -9 2 -7 0 -18 -5 -26 -6 -10 -9 -10 -9 -1 0
6 -7 12 -15 12 -13 0 -14 -4 -4 -22 11 -21 11 -22 -6 -8 -9 8 -25 15 -34 15
-47 4 -49 5 -43 28 6 26 20 37 45 37 11 0 15 -4 11 -11 -11 -19 48 -1 70 21
15 14 23 17 33 8 10 -8 13 -7 14 3z m-202 -352 c5 -16 30 -43 56 -61 26 -19
44 -39 43 -48 -2 -8 7 -25 19 -36 13 -12 23 -26 23 -31 0 -6 9 -13 21 -16 12
-3 18 -10 14 -16 -3 -6 -1 -11 4 -11 6 0 11 -6 11 -13 0 -6 14 -18 30 -25 39
-18 38 -29 -2 -25 -66 7 -110 22 -102 35 3 5 0 8 -7 6 -15 -3 -83 35 -110 62
-46 44 -71 93 -85 164 -21 103 -15 116 35 75 22 -17 44 -44 50 -60z m491 -249
c0 -5 -5 -10 -11 -10 -5 0 -7 5 -4 10 3 6 8 10 11 10 2 0 4 -4 4 -10z"/>
<path d="M1948 1903 c7 -3 16 -2 19 1 4 3 -2 6 -13 5 -11 0 -14 -3 -6 -6z"/>
<path d="M2177 1359 c7 -7 15 -10 18 -7 3 3 -2 9 -12 12 -14 6 -15 5 -6 -5z"/>
<path d="M1810 1310 c0 -5 5 -10 10 -10 6 0 10 5 10 10 0 6 -4 10 -10 10 -5 0
-10 -4 -10 -10z"/>
<path d="M147 2574 c-4 -4 -7 -24 -7 -44 0 -20 -5 -41 -11 -47 -7 -7 -7 -22
-2 -44 8 -28 14 -35 39 -37 40 -4 57 17 58 73 1 61 -50 126 -77 99z"/>
<path d="M2975 2558 c-36 -19 -47 -39 -31 -57 7 -9 16 -47 20 -86 3 -38 8 -79
10 -90 3 -11 5 -22 5 -25 2 -11 34 57 47 100 24 79 14 171 -19 170 -7 0 -21
-6 -32 -12z"/>
<path d="M2816 2359 c-28 -84 -26 -99 21 -113 17 -5 24 -18 29 -52 3 -24 9
-44 13 -44 3 1 17 10 30 20 19 16 24 33 29 85 5 72 -3 90 -46 98 -15 3 -37 8
-49 12 -15 5 -24 3 -27 -6z"/>
<path d="M2750 2173 c0 -15 -2 -16 -10 -3 -6 9 -10 10 -10 3 0 -6 5 -15 10
-18 16 -10 11 -25 -6 -18 -13 5 -15 -3 -12 -52 2 -31 6 -59 10 -62 5 -2 8 4 8
13 0 29 18 3 30 -41 l10 -40 -5 49 c-3 27 -5 61 -5 75 0 21 -2 23 -10 11 -7
-10 -8 3 -4 43 4 31 4 57 0 57 -3 0 -6 -8 -6 -17z"/>
<path d="M2805 2099 c-4 -6 -5 -13 -2 -16 7 -7 27 6 27 18 0 12 -17 12 -25 -2z"/>
<path d="M2721 2010 c-1 -3 -4 -18 -6 -34 -3 -20 -1 -26 6 -19 6 6 9 21 6 34
-2 13 -5 22 -6 19z"/>
<path d="M2732 1945 c-11 -12 -10 -15 3 -15 8 0 15 7 15 15 0 18 -2 18 -18 0z"/>
<path d="M2769 1945 c-5 -20 -3 -65 4 -65 4 0 7 16 7 35 0 29 -7 48 -11 30z"/>
<path d="M2710 1910 c0 -5 5 -10 10 -10 6 0 10 5 10 10 0 6 -4 10 -10 10 -5 0
-10 -4 -10 -10z"/>
<path d="M2768 1830 c-7 -24 -3 -38 8 -28 3 4 4 17 2 30 l-3 23 -7 -25z"/>
<path d="M2627 1643 c3 -7 6 -13 8 -13 2 0 5 6 8 13 3 8 -1 14 -8 14 -7 0 -11
-6 -8 -14z"/>
<path d="M2840 1164 c0 -17 74 -113 82 -108 14 9 28 52 22 68 -7 19 -104 56
-104 40z"/>
</g>
</svg>
